<svg width="16" height="16" viewBox="0 0 16 16" fill="none" xmlns="http://www.w3.org/2000/svg">
<path fill-rule="evenodd" clip-rule="evenodd" d="M9.26899 3.23774C8.53132 2.63212 7.46852 2.63212 6.73085 3.23774L3.15387 6.1744C2.84539 6.42766 2.66659 6.80579 2.66659 7.20492V12C2.66659 12.7363 3.26354 13.3333 3.99992 13.3333H11.9999C12.7363 13.3333 13.3333 12.7363 13.3333 12V7.20492C13.3333 6.80579 13.1544 6.42766 12.846 6.1744L9.26899 3.23774ZM5.8848 2.20722C7.11425 1.19785 8.88559 1.19786 10.115 2.20722L13.692 5.14387C14.309 5.65039 14.6666 6.40667 14.6666 7.20492V12C14.6666 13.4727 13.4727 14.6666 11.9999 14.6666H3.99992C2.52716 14.6666 1.33325 13.4727 1.33325 12V7.20492C1.33325 6.40666 1.69086 5.65039 2.30782 5.14387L5.8848 2.20722Z" fill="white"/>
</svg>
