<svg width="14" height="14" viewBox="0 0 14 14" fill="none" xmlns="http://www.w3.org/2000/svg">
<path d="M0 14L0.984081 10.4049C0.376832 9.35258 0.0577499 8.15967 0.0583332 6.93642C0.0600832 3.11208 3.17216 0 6.9959 0C8.85148 0.000583333 10.5933 0.723333 11.9035 2.03467C13.2131 3.346 13.9341 5.089 13.9335 6.94283C13.9317 10.7677 10.8196 13.8798 6.9959 13.8798C5.83507 13.8792 4.69116 13.5882 3.67791 13.0352L0 14ZM3.84824 11.7793C4.82591 12.3597 5.75924 12.7073 6.99357 12.7079C10.1716 12.7079 12.7604 10.1214 12.7621 6.94167C12.7633 3.7555 10.1867 1.1725 6.99823 1.17133C3.81791 1.17133 1.23083 3.75783 1.22966 6.937C1.22908 8.23492 1.60941 9.20675 2.24816 10.2235L1.66541 12.3515L3.84824 11.7793ZM10.4906 8.59192C10.4475 8.51958 10.332 8.47642 10.1581 8.3895C9.98489 8.30258 9.13265 7.88317 8.9734 7.82542C8.81473 7.76767 8.69923 7.7385 8.58315 7.91233C8.46765 8.08558 8.13515 8.47642 8.03423 8.59192C7.93332 8.70742 7.83182 8.722 7.65857 8.63508C7.48532 8.54817 6.92648 8.36558 6.2644 7.77467C5.74932 7.315 5.40107 6.74742 5.30015 6.57358C5.19924 6.40033 5.28965 6.30642 5.37599 6.22008C5.45415 6.1425 5.54924 6.01767 5.63615 5.91617C5.72424 5.81583 5.75282 5.7435 5.81115 5.62742C5.8689 5.51192 5.84032 5.41042 5.79657 5.3235C5.75282 5.23717 5.40632 4.38375 5.26224 4.03667C5.12107 3.69892 4.97816 3.74442 4.87199 3.73917L4.53949 3.73333C4.42399 3.73333 4.23616 3.7765 4.07749 3.95033C3.91882 4.12417 3.47083 4.543 3.47083 5.39642C3.47083 6.24983 4.09207 7.07408 4.17841 7.18958C4.26532 7.30508 5.40049 9.05625 7.1394 9.807C7.55298 9.9855 7.87615 10.0922 8.12756 10.1722C8.5429 10.304 8.9209 10.2853 9.21956 10.241C9.55264 10.1914 10.2451 9.82158 10.3897 9.41675C10.5344 9.01133 10.5344 8.66425 10.4906 8.59192Z" fill="#25D366"/>
</svg>
